# xmcd
#
# Track frame offsets:
# 150
# 16400
# 28436
# 44737
# 59729
# 72390
# 87012
# 101820
# 113960
# 127307
# 140483
# 153318
# 167333
# 182086
# 200842
# 223597
# 237902
# 255978
# 272218
# 300735
#
# Disc length: 4204 seconds
#
#
# Revision: 0
# Processed by: cddbd v1.5.1PL2 Copyright (c) Steve Scherf et al.
# Submitted via: FreeRIP 2.944 
#
DISCID=35106a14
DTITLE=Michal Tucny - Rad se brouzdam rosou
DYEAR=1900
DGENRE=Country
TTITLE0=Abych tu zil
TTITLE1=Rad se brouzdam rosou
TTITLE2=Koukam, jak cela zeme vstava
TTITLE3=Zdam se ti lepsi nezli jsem
TTITLE4=Ja svetem tah' jen tak s celtou
TTITLE5=Posledni kovboj
TTITLE6=Nevidim duvod
TTITLE7=Fidlej celej den
TTITLE8=Boty z kuze toulavejch psu
TTITLE9=Je to zvlastni
TTITLE10=Projizdim
TTITLE11=Ja nic, ja muzikant
TTITLE12=Vzdusne zamky
TTITLE13=Odval ten kamen
TTITLE14=Na to mam
TTITLE15=Hallo, Mr. Deja Vu
TTITLE16=Muj kalendar
TTITLE17=Jeste dlouhou cestu mam
TTITLE18=Jak chcete zit bez koni
TTITLE19=Jizansky rok
EXTD=
EXTT0=
EXTT1=
EXTT2=
EXTT3=
EXTT4=
EXTT5=
EXTT6=
EXTT7=
EXTT8=
EXTT9=
EXTT10=
EXTT11=
EXTT12=
EXTT13=
EXTT14=
EXTT15=
EXTT16=
EXTT17=
EXTT18=
EXTT19=
PLAYORDER=
